<?xml version="1.0" encoding="utf-8"?>
<!-- Generator: Adobe Illustrator 19.2.0, SVG Export Plug-In . SVG Version: 6.00 Build 0)  -->
<!DOCTYPE svg PUBLIC "-//W3C//DTD SVG 1.1//EN" "http://www.w3.org/Graphics/SVG/1.1/DTD/svg11.dtd">
<svg version="1.1" id="Layer_1" xmlns="http://www.w3.org/2000/svg" xmlns:xlink="http://www.w3.org/1999/xlink" x="0px" y="0px"
	 viewBox="0 0 100 171" style="enable-background:new 0 0 100 171;" xml:space="preserve">
<style type="text/css">
	.st0{fill:#EB1946;}
	.st1{fill:#F2F2F2;}
</style>
<g>
	<polygon class="st0" points="0,171 0,0 100,0 100,133.2 	"/>
	<g id="g6934-6_2_" transform="translate(-943.18571,318.27649)">
		<g id="g6936-7_2_">
			<path id="path6938-5_2_" inkscape:connector-curvature="0" class="st1" d="M1020.1-269.7l-0.9,5.2c0,0,2.2,2.9,2.6,4.5
				c0,0,0.2,0.3-0.2,0.6c-0.4,0.3-5.6,4.8-9-1l-1.7-3c0,0-0.4-0.8-0.9,0.3c-0.5,1.1-1.1,4.1-1.1,4.1s4.8,8.2,5,11.1
				c0,0-8.7,9.2-17.6,11.6c0,0-2.4,1-6,0.4c-3.6-0.6-6.3-2.5-6.5-7.6c0,0,0.1-3,1.6-7.4c0,0-0.3-0.4-0.6,0.5
				c-0.4,1-3.1,6.5-1.5,13.9c0,0,1.1,5.6,7.6,6.2c0,0,5.7,0.8,14.5-5.5c0,0,8.2-5.1,10-11.5c0,0,0.6-2.7,0.4-5.2
				c0,0,1.8,0.5,4.2-0.7l1.6-0.8c0,0,1.4-0.5,1.9-3.5C1023.8-260.4,1023.7-264.5,1020.1-269.7L1020.1-269.7z"/>
			<path id="path6940-3_2_" inkscape:connector-curvature="0" class="st1" d="M1000.4-265.6l-1.5,5.9c0,0,5,5.9,5,9
				c0,0-6.5,3-9.8,0.1c-3.3-2.9-3.9-9.3-3.9-9.3s-0.8-7.3-2.1-11.3c-1.2-3.9-2.6-10.6-8.8-20.3L978-286c0,0,8.5,20.6,8.7,24.7
				c0,0-0.5,2.8-3.9,6.2c0,0-8.8,9.1-16.3,10.1c-7.6,1-6.4-5.6-6.4-5.6s0.3-3.8,2.5-10.4c0,0,0.4-2.4-0.7,0.1
				c-1.1,2.4-4.9,9.9-1.9,17.8c3,7.9,14.2,0.6,16.3-0.8c2.1-1.5,9.1-7.2,10.6-10.2c0,0,1-1.9,1.1-3.9c0,0,0.7,11.7,6.8,14.2
				c0,0,8.5,2.5,10.5-6.1C1005.2-249.9,1007.4-257.9,1000.4-265.6L1000.4-265.6z"/>
			<path id="path6942-5_2_" inkscape:connector-curvature="0" class="st1" d="M991.2-290.1c0,0-0.1,0.6-0.2,0.7c0,0-0.8-0.7-1.6-0.9
				c-0.7-0.3-0.5-1-0.5-1.3c0.1-0.3,0.3-1.3,0.3-1.3s0.2-1.1,1.5-0.2s2.8,2.7,3.5,6.3c0,0,0.1,0.5,0.2-0.1c0.1-0.5,0.6-5.3,2-7
				c0,0,0.8-1.1,2.2,0.7c0,0,0.4,1-0.5,2.4c0,0-0.5-0.8-1-1c-0.4-0.2-1.1-0.7-1.5,1.1c-0.4,1.8-0.8,4.5-1,5.3
				c-0.2,0.8-0.6,1.4-0.8,0.6C993.6-285.7,993.3-288.4,991.2-290.1z"/>
			<path id="path6944-6_2_" inkscape:connector-curvature="0" class="st1" d="M973.7-263.1c0,0-0.1,0.6-0.2,0.7c0,0-0.8-0.7-1.6-0.9
				c-0.7-0.3-0.5-1-0.5-1.3c0.1-0.3,0.3-1.3,0.3-1.3s0.2-1.1,1.5-0.2s2.8,2.7,3.5,6.3c0,0,0.1,0.5,0.2-0.1c0.1-0.5,0.6-5.3,2-7
				c0,0,0.8-1.1,2.2,0.7c0,0,0.4,1-0.5,2.4c0,0-0.5-0.8-1-1c-0.4-0.2-1.1-0.7-1.5,1.1c-0.4,1.8-0.8,4.5-1,5.3
				c-0.2,0.8-0.6,1.4-0.8,0.6C976.1-258.7,975.8-261.5,973.7-263.1z"/>
			<path id="path6946-2_2_" inkscape:connector-curvature="0" class="st1" d="M970.5-232.9c0,0-0.1,0.6-0.2,0.7c0,0-0.8-0.7-1.6-0.9
				c-0.7-0.3-0.5-1-0.5-1.3c0.1-0.3,0.3-1.3,0.3-1.3s0.2-1.1,1.5-0.2s2.8,2.7,3.5,6.3c0,0,0.1,0.5,0.2-0.1c0.1-0.5,0.6-5.3,2-7
				c0,0,0.8-1.1,2.2,0.7c0,0,0.4,1-0.5,2.4c0,0-0.5-0.8-1-1c-0.4-0.2-1.1-0.7-1.5,1.1c-0.4,1.8-0.8,4.5-1,5.3
				c-0.2,0.8-0.6,1.4-0.8,0.6C972.9-228.6,972.5-231.3,970.5-232.9L970.5-232.9z"/>
			<polygon id="polygon6948-9_2_" class="st1" points="1023.4,-247.7 1019.5,-243.5 1024,-239.1 1028,-243.3 			"/>
			<path id="path6950-1_2_" inkscape:connector-curvature="0" class="st1" d="M990.2-277.9l4.5,4.1c0,0,3.5-4,4-4.2l-4.5-4.2
				L990.2-277.9z"/>
			<path id="path6952-2_2_" inkscape:connector-curvature="0" class="st1" d="M1016.9-234.5c0,0-17.3,7.9-21.8,10.8l-1.1,3.1
				c0,0,13.7-8.4,22-11.3L1016.9-234.5L1016.9-234.5z"/>
			<path id="path6954-7_2_" inkscape:connector-curvature="0" class="st1" d="M996.5-264.8c0,0-0.4-0.2-0.5,0.4
				c-0.1,0.7-0.5,1.2-1.3,0.8c-0.8-0.4-1.3-2.3,1.4-6c0,0,0.1-0.7-0.7,0.2c-1.1,1.3-2.4,3.6-2.3,5.3c0.1,1.7,1.5,2.6,2.3,2.2
				C995.5-261.8,997.1-262.5,996.5-264.8L996.5-264.8z"/>
			<path id="path6956-0_2_" inkscape:connector-curvature="0" class="st1" d="M989.8-242c0,0-0.4-0.2-0.5,0.4
				c-0.1,0.7-0.5,1.2-1.3,0.8c-0.8-0.4-1.3-2.3,1.4-6c0,0,0.1-0.7-0.7,0.2c-1.1,1.3-2.4,3.6-2.3,5.3c0.1,1.7,1.5,2.6,2.3,2.2
				C988.8-239,990.4-239.7,989.8-242L989.8-242z"/>
			<path id="path6958-9_2_" inkscape:connector-curvature="0" class="st1" d="M985.6-225.5c0,0-0.4-0.2-0.5,0.4
				c-0.1,0.7-0.5,1.2-1.3,0.8c-0.8-0.4-1.3-2.3,1.4-6c0,0,0.1-0.7-0.7,0.2c-1.1,1.3-2.4,3.6-2.3,5.3c0.1,1.7,1.5,2.6,2.3,2.2
				C984.5-222.5,986.1-223.2,985.6-225.5L985.6-225.5z"/>
			<path id="path6960-3_2_" inkscape:connector-curvature="0" class="st1" d="M1009.9-284.7c0,0-0.5-0.2-0.7,0.5
				c-0.2,0.9-0.7,1.6-1.7,1.1c-1-0.5-1.8-3,1.8-7.9c0,0,0.2-1-0.8,0.3c-1.5,1.8-3.1,4.7-3,7c0.1,2.2,1.9,3.4,3,2.9
				C1008.6-280.8,1010.6-281.8,1009.9-284.7L1009.9-284.7z"/>
			<path id="path6962-6_2_" inkscape:connector-curvature="0" class="st1" d="M970-253.3c0,0-0.5-0.2-0.5,0.4
				c-0.1,0.8-0.6,1.3-1.4,1c-0.8-0.4-1.5-2.5,1.5-6.5c0,0,0.2-0.8-0.7,0.2c-1.2,1.5-2.5,3.9-2.5,5.7c0.1,1.9,1.6,2.8,2.5,2.4
				C968.9-250,970.6-250.8,970-253.3z"/>
			<path id="path6964-0_2_" inkscape:connector-curvature="0" class="st1" d="M1027.7-253.1c0,0-0.5-0.2-0.5,0.4
				c-0.1,0.8-0.6,1.3-1.4,1c-0.8-0.4-1.5-2.5,1.5-6.5c0,0,0.2-0.8-0.7,0.2c-1.2,1.5-2.5,3.9-2.5,5.7c0.1,1.9,1.6,2.8,2.5,2.4
				C1026.6-249.8,1028.3-250.6,1027.7-253.1z"/>
			<path id="path6966-6_2_" inkscape:connector-curvature="0" class="st1" d="M1019.9-283.8l-0.5,1.6c0,0,2.9,2.7,3.4,8.3
				C1022.8-273.9,1024.8-278.2,1019.9-283.8L1019.9-283.8z"/>
			<path id="path6968-2_2_" inkscape:connector-curvature="0" class="st1" d="M1009.7-276.4l-1.4,3.1l6,0.1c0,0,1,0.1-0.3,0.8
				c-1.3,0.7-4.3,2.7-4.3,2.7s5.2,0.8,7.3-4.7c0,0,1-2.1-1-2.1C1013.9-276.5,1009.7-276.4,1009.7-276.4z"/>
			<path id="path6970-6_2_" inkscape:connector-curvature="0" class="st1" d="M962.8-276.4l-1.9,3.1l6.5,0.1c0,0,1,0.1-0.3,0.8
				c-1.3,0.7-4.3,2.7-4.3,2.7s5.2,0.8,7.3-4.7c0,0,1-2.1-1-2.1C967-276.5,962.8-276.4,962.8-276.4z"/>
		</g>
		<g id="g6972-1_2_">
			<path id="path6974-8_2_" inkscape:connector-curvature="0" class="st1" d="M967.9-216.3c1.1-0.5,2.4-1.9,2.4-3.3
				c0-3.9-2.5-5.2-5.3-5.2c-0.8,0-1.9,0.1-2.7,0.2c-1.1,0.1-1.6,0.1-1.9,0.1c-0.2,0-0.4,0-0.6-0.1h-1c0,0,0,0.8,0,0.9v17.8
				c0,0.1,0,0.8,0,0.8h1c0.5-0.2,1.3-0.3,2.1-0.3c1.8,0,3.8,0.3,4,0.3c3.9,0,6.6-1.7,6.6-5.6C972.6-214.1,970.2-215.8,967.9-216.3
				L967.9-216.3z M961.1-224.1c0.6,0,1.8-0.1,2.1-0.1c2.6,0,5,1.5,5,4.5c0,1.7-0.8,3.2-1.8,3.2c-1.2,0-1.4,0-5.4,0V-224.1z
				 M965.9-205.6c-0.8,0-2.1-0.4-3.6-0.4c-0.4,0-0.7,0-1.1,0.1v-9.9h4.2c3.3,0,4.9,3,4.9,5.6C970.2-208.1,969.1-205.6,965.9-205.6z"
				/>
			<path id="path6976-7_2_" inkscape:connector-curvature="0" class="st1" d="M977.8-218.3v4.1c0.5-1,1.1-2,1.6-2.8
				c0.4-0.7,0.9-1.1,1.3-1.6c0.8-0.7,1.1-0.7,1.4-0.7c0.8,0,1.6,0.7,1.6,1.6c0,0.9-0.7,1.6-1.6,1.6c-2.1,0.1-2.4-0.5-4.3,2.7
				c0,0.1,0,0.1,0,0.3v7.9h-2.4v-12c0-0.6-0.2-0.8-0.6-0.8c-0.2,0-0.5,0.1-0.8,0.2l-0.8,0.4v-0.5l2.2-1.1c0.3-0.2,0.7-0.2,1.1-0.2
				C977.2-219.3,977.8-219.1,977.8-218.3L977.8-218.3z"/>
			<path id="path6978-9_2_" inkscape:connector-curvature="0" class="st1" d="M996.8-208.3c-1.3,1.9-3.4,3-5.8,3
				c-3.9,0-7.1-3.2-7.1-7.1c0-3.9,3.3-7.1,7.1-7.1c4.6,0,6.2,3,6.2,3.7c0,0.7-0.5,1.3-1.1,1.6l-8.9,4.8c1.3,1.7,3.3,3.1,5.5,3.1
				c1.9,0,3.3-1.9,3.7-2.5L996.8-208.3L996.8-208.3z M985.9-213.7c0,1.2,0.3,3.1,1.1,4.1l7.3-3.9c0.4-0.2,0.7-0.7,0.7-1.1
				c0-1.3-2.5-3.8-5.5-3.8C987-218.5,985.9-216.2,985.9-213.7L985.9-213.7z"/>
			<path id="path6980-2_2_" inkscape:connector-curvature="0" class="st1" d="M1002.5-218.3v3l7.1-3.8c0.3-0.2,0.7-0.2,1.1-0.2
				c0.7,0,1.2,0.2,1.2,1v11.9c0,0.4,0.8,0.6,1.1,0.7v0.4h-2.1c-0.9,0-1.5-0.6-1.5-1.5v-10.6c0-0.6-0.2-0.8-0.6-0.8
				c-0.2,0-0.5,0.1-0.8,0.2l-5.6,3v9.6h-2.4v-12c0-0.6-0.2-0.8-0.6-0.8c-0.2,0-0.5,0.1-0.8,0.2l-0.8,0.4v-0.5l2.2-1.1
				c0.3-0.2,0.7-0.2,1.1-0.2C1001.8-219.3,1002.5-219.1,1002.5-218.3L1002.5-218.3z"/>
			<path id="path6982-0_2_" inkscape:connector-curvature="0" class="st1" d="M1020.8-205.2c-4.1,0-6.8-2.3-6.8-7.1
				c0-3.8,1.9-7.1,6.7-7.1c1.8,0,3.5,0.7,4.8,1.8v-6.8c0-0.6-0.2-0.8-0.7-0.8c-0.2,0-0.5,0.1-0.8,0.2l-0.8,0.4v-0.5l2.2-1.2
				c0.3-0.1,0.7-0.2,1.1-0.2c0.7,0,1.3,0.3,1.3,1v18.9c0,0.4,0.8,0.6,1.1,0.7v0.4h-2.1c-0.9,0-1.5-0.6-1.5-1.5v-0.8
				C1024.2-206.5,1022.7-205.2,1020.8-205.2L1020.8-205.2z M1022.4-206.7c2.8,0,3.4-3,3.4-5.4c0-5.8-3.6-6.7-5.6-6.7
				c-2.5,0-4.2,1.2-4.2,4.7C1015.9-208.4,1020.3-206.7,1022.4-206.7z"/>
		</g>
	</g>
</g>
</svg>
